<svg xmlns="http://www.w3.org/2000/svg" xml:space="preserve" width="343.784" height="348.164" viewBox="0 0 343.78399 348.164"><path d="M229.207 134.368c0-53.848-43.652-97.5-97.5-97.5s-97.5 43.652-97.5 97.5 43.652 97.5 97.5 97.5 97.5-43.652 97.5-97.5" style="fill:#254aa5;fill-opacity:1;fill-rule:evenodd;stroke:none;stroke-width:.1" transform="matrix(1.33333 0 0 -1.33333 0 348.164)"/><path d="M222.723 153.855c.148 0-1.046 1.794-3.888 2.54-5.534 1.499-20.483 8.526-19.736 9.123.898.899-.149 2.391-1.795 1.646 0 0-1.043-.6-8.522-1.646-7.472-1.197-41.563-3.289-60.25-2.543-18.69.746-18.69.15-30.051.899-11.366.747-34.387 2.99-34.387 3.439l.15-1.645s-5.832-3.887-10.467-5.982c-4.635-2.091-9.718-3.291-11.064-3.437-1.345-.3-2.393-1.494-1.196-1.943.598-.153 8.372-1.048 19.883-1.347 15.4-.297 36.93 0 52.482.149 27.06.15 73.407-.298 82.227-.298 16.298-.148 25.568 1.643 26.614 1.045M199.847 141.746s8.222 4.186 9.12 5.831c1.048 1.645 2.241 2.394 2.241 2.394H51.834s4.335-5.534 9.866-7.178c5.532-1.644 138.147-1.047 138.147-1.047M61.552 134.572h139.94v4.782H61.552ZM52.58 95.398h157.435v3.888H52.58ZM71.568 133.074h-4.933c-2.392-13.008-.301-22.574 0-26.31-1.047-1.348-1.493-5.085-.746-5.684.747-.748 5.68-.297 5.83-.148.15.148.447.596.596 2.092.15 1.346-1.343 3.287-1.196 3.74 1.649 8.819 1.345 15.098.45 26.31M197.304 133.074h-4.933c-2.392-13.008-.298-22.574-.147-26.31-.901-1.348-1.498-5.085-.75-5.684.75-.748 5.682-.297 5.83-.148.302.148.6.596.749 2.092.148 1.346-1.342 3.287-1.342 3.74 1.641 8.819 1.342 15.098.593 26.31M87.115 130.235c2.844-1.496 4.04-6.431 4.04-13.009 0-6.427-.9-11.81-4.04-13.455v4.036c0 .151 0 .151.152.151.749 1.496 1.196 6.877 1.044 9.867 0 3.138-.446 5.829-.894 7.175-.15.151-.15.45-.302.6zm-1.792.448c.749 0 1.197-.149 1.792-.448V125.6c-.446 1.045-1.343 2.091-1.192 2.243v-21.83s.448.448 1.192 1.794v-4.036c-.595-.298-1.343-.45-2.092-.45-.298 0-1.346-.147-1.643 0l-.151 27.51c.3 0 1.794-.148 2.094-.148M106.405 130.98h1.794l3.289-27.659h-2.542l-.896 7.478h-1.645v2.243h1.344l-1.194 9.268-.15-.301zm-1.646 0h1.646v-8.971l-1.198-8.967h1.198v-2.243h-1.494l-1.048-7.478h-2.244zM122.998 130.98h6.131v-2.988h-3.587v-9.121h3.14v-2.842h-3.14v-9.718h3.587v-2.99h-6.131zM142.586 130.98h2.84c.15-7.92.299-12.41.15-22.425 0-2.691-1.347-5.381-3.738-5.531-4.486-.149-4.033 5.231-3.887 10.165l2.691.151c0-.898-.298-7.179.896-7.179l.15-.148c.748 0 1.046 1.197 1.046 2.542.301 7.028-.298 15.099-.148 22.425M157.686 103.321h3.29v27.51h-3.29ZM177.422 130.98h2.689v-27.659h-2.689l-2.543 14.057v-14.057h-2.84v27.659h2.84l2.543-14.65zM134.659 77.01v.745c.302 0 .45.15.603.15.294.153.597.448.744.749.3.297.447.748.447 1.044 0 .45-.147.9-.447 1.199-.147.298-.45.597-.897.746h-.45v.895c.302 0 .45 0 .45-.146.447 0 .75-.152 1.048-.3a3.55 3.55 0 0 0 1.046-1.047c.301-.298.301-.749.301-1.347 0-.45-.152-1.044-.449-1.495-.301-.448-.749-.747-1.347-1.046-.299-.147-.599-.147-.897-.147zm0 5.528v-.895c0 .148-.145.148-.145.148h-1.499v-4.185h.45c.447 0 .746.15 1.049.15h.145v-.746c-.298-.151-.596-.151-1.043-.151h-1.796c.151.597.151 1.047.151 1.344v3.141c0 .447 0 .896-.151 1.194h2.839m-12.26-5.528v.745c.154 0 .452.15.599.15.301.153.6.448.751.749.297.297.297.748.297 1.044 0 .45 0 .9-.297 1.199-.151.298-.602.597-.898.746h-.452v.895c.154 0 .3 0 .452-.146.448 0 .747-.152 1.046-.3.448-.301.75-.598 1.044-1.047.153-.298.3-.749.3-1.347 0-.45-.147-1.044-.447-1.495-.301-.448-.748-.747-1.346-1.046-.301-.147-.597-.147-.895-.147zm8.526-.151h-4.636v5.678999999999999h4.636v-.747h-3.441v-1.495h3.289v-.894h-3.2889999999999997v-1.796h1.945c.149 0 .298.15.748.15h.748zm-8.526 5.679v-.895c0 .148-.147.148-.147.148h-1.494v-4.185h.449c.298 0 .744.15 1.045.15h.147v-.746c-.295-.151-.596-.151-1.045-.151h-1.791v1.344c.146.302.146.6.146.896 0 1.05 0 1.798-.146 2.245v1.194h2.836m-20.03-5.829v.897c.748 0 1.195.15 1.643.597.299.302.597.896.597 1.495 0 .748-.298 1.199-.597 1.646-.448.299-.895.6-1.643.6v.746h.147q1.345.001 2.243-.899c.747-.447 1.047-1.193 1.047-2.093 0-.895-.3-1.495-1.047-2.092-.598-.596-1.347-.897-2.39-.897m9.567 5.829v-3.1359999999999997a3 3 0 0 0-.299-1.344c0-.303-.297-.602-.6-.75-.147-.298-.447-.298-.746-.449-.3 0-.596-.15-1.047-.15-.298 0-.748.15-1.045.301q-.448-.001-.898.446c-.151.15-.3.45-.448.747 0 .302-.151.748-.151 1.348v2.9869999999999997h1.1969999999999998v-3.8840000000000003c0-.45.151-.596.451-.899.298-.15.596-.15.894-.15h.598c.149 0 .302.15.449.15.15.15.299.303.299.598.15.152.15.45.15.746v3.439h1.196m6.729 0c0-.298-.15-.594-.15-.747v-4.9319999999999995c-.152.151-.152.151-.299.151h-.6s-.147 0-.296-.151c-.153.298-.3.597-.451.747-.15 0-.299.3-.598.747 0 0-.148.152-.298.3 0 .15-.151.298-.151.298-.147.148-.297.451-.595.747-.153.3-.3.45-.449.598-.15.302-.3.45-.3.6q-.226.224-.449.448v-2.839c.15-.6.15-1.197.15-1.646-.15 0-.297.151-.449.151h-.44899999999999995c-.148 0-.148-.151-.449-.151.151.449.151.747.151 1.047v4.632000000000001h1.495c0-.146.3-.594.596-1.044.451-.45 1.049-1.345 1.795-2.395.451-.445.451-.594.298-.445.153-.149.153-.149.302-.3v2.543c0 .746-.149 1.343-.149 1.64h1.345m-20.484-.747h-3.439v-1.642h2.392c.3.147.597.147.897.147v-.894h-3.2889999999999997v-2.5429999999999997c-.149 0-.299.151-.299.151h-.44799999999999995c-.15 0-.299 0-.45-.151v5.679h4.636zm4.188.899v-.746c-.601 0-1.047-.301-1.497-.6-.449-.447-.597-.898-.597-1.646 0-.6.148-1.193.597-1.495.45-.448.896-.597 1.497-.597v-.897c-.897 0-1.646.301-2.394.897-.599.597-.897 1.197-.897 2.092 0 .9.298 1.646.897 2.093.748.601 1.497.899 2.394.899M143.632 82.69v-1.346c0-.3-.149-.898-.149-1.646v-1.044c0-.45.149-.748.149-.899v-.745h-1.196v5.68c.15-.152.298-.152.298-.152h.6s.149 0 .298.152m6.729 0c0-.298 0-.598-.148-.899V77.01h-1.2c-.151.298-.299.446-.448.596-.147.15-.297.452-.6.747 0 .152-.148.3-.295.45 0 .148-.152.148-.152.296-.146.15-.299.303-.598.599-.149.3-.298.598-.448.748-.151.152-.299.3-.299.45l-.448.448v-2.839c.15-.6.15-1.197.15-1.495h-1.3479999999999999c.151.298.151.596.151.896v4.784000000000001c.153-.152.299-.152.449-.152h.598c.15 0 .299 0 .448.152.148-.298.299-.598.747-1.047.299-.598.897-1.347 1.645-2.394.448-.595.448-.744.297-.446.151-.15.151-.298.303-.45v2.544c0 .894 0 1.343-.152 1.793.301-.152.301-.152.448-.152h.45199999999999996c.146 0 .3 0 .448.152M166.357 76.709v.897a.82.82 0 0 1 .749.452c.3.295.448.893.448 1.493a2.1 2.1 0 0 0-.599-.452c-.148 0-.449-.148-.598-.148v.747c.302 0 .598.15.749.3q.449.449.448.899a.82.82 0 0 1-.448.746 1.15 1.15 0 0 1-.749.301v.746c.749 0 1.197-.152 1.646-.746.299-.45.447-1.047.447-1.945 0-1.048-.148-1.796-.596-2.393-.3-.449-.899-.747-1.497-.897m6.43.15c-.15 0-.299.151-.449.151h-.299c-.148 0-.301-.151-.449-.151 0 .298.148.747.148 1.199v3.436c-.148 0-.296-.15-.449-.15-.298-.15-.444-.15-.597-.3v.9c.299 0 .447.148.75.296q.224.001.896.45h.299v-4.1850000000000005c0-.302 0-.9.15-1.646m-6.43 5.83v-.745c-.299 0-.596-.153-.898-.301a1.15 1.15 0 0 1-.3-.746c0-.299.153-.6.3-.898.302-.15.599-.301.898-.301v-.747h-.15c-.597 0-1.048.148-1.495.6-.3.298-.448.745-.448 1.196 0 .597.148 1.044.448 1.493.447.298.898.45 1.645.45m0-5.083v-.897h-.299c-.297 0-.599.15-.899.15-.297.151-.447.151-.747.298v1.046c.3-.297.45-.448.747-.597.153 0 .451-.15.749-.15.15 0 .299 0 .449.15m-5.382-.897v.897c.297 0 .599.15.748.452.3.295.448.893.448 1.493a2.1 2.1 0 0 0-.597-.452c-.153 0-.302-.148-.599-.148v.747c.297 0 .599.15.895.3.153.298.301.6.301.899 0 .298-.148.597-.301.746-.296.148-.598.301-.895.301v.746c.748 0 1.346-.152 1.645-.746.449-.45.6-1.047.6-1.945 0-1.048-.302-1.796-.747-2.393-.302-.449-.899-.747-1.498-.897m-4.184.15c-.152 0-.302.151-.302.151h-.44799999999999995c-.148 0-.299-.151-.449-.151.15.298.15.747.15 1.199v3.436c-.15 0-.299-.15-.45-.15-.148-.15-.449-.15-.596-.3v.9c.299 0 .596.148.747.296q.225.001.896.45h.3v-4.1850000000000005c0-.302.152-.9.152-1.646m4.184 5.83v-.745c-.296 0-.597-.153-.746-.301-.302-.149-.302-.448-.302-.746 0-.299 0-.6.302-.898.149-.15.45-.301.746-.301v-.747h-.148c-.598 0-1.049.148-1.347.6-.449.298-.597.745-.597 1.196 0 .597.148 1.044.597 1.493.298.298.898.45 1.495.45m0-5.083v-.897h-.296c-.301 0-.6.15-.752.15-.3.151-.595.151-.896.298v1.046c.301-.297.596-.448.747-.597.301 0 .6-.15.747-.15.154 0 .302 0 .45.15" style="fill:#fff;fill-opacity:1;fill-rule:evenodd;stroke:none;stroke-width:.1" transform="matrix(1.33333 0 0 -1.33333 0 348.164)"/><path d="M25.143 70.662c1.48 0 2.793 1.315 2.793 2.794 0 1.478-1.313 2.795-2.793 2.795-1.644 0-2.795-1.317-2.795-2.795 0-1.479 1.15-2.794 2.795-2.794M232.203 70.662c1.478 0 2.792 1.315 2.792 2.794 0 1.478-1.314 2.795-2.792 2.795-1.643 0-2.796-1.317-2.796-2.795 0-1.479 1.153-2.794 2.796-2.794M180.439 21.529l-21.201-8.052.986-2.794 19.061 7.395 2.793-6.904 4.604 1.808c-2.465 6.244-3.121 9.858-6.243 8.547M183.887 28.924l-1.316 3.449-3.449-1.313-1.476 3.615-4.275-1.646 4.434-11.5 4.273 1.64-1.639 4.437zM171.726 28.759l-1.311 3.12-7.071-2.629-.654 1.81v-5.918a4 4 0 0 0 1.971 0c.822-.165 1.314-.657 1.646-1.313.324-.66.161-1.315-.332-2.137-.655-.824-1.314-1.317-2.3-1.645-.331-.163-.656-.323-.985-.323v-3.618c.822.163 1.478.326 2.299.654 2.3.824 4.112 2.139 5.426 3.785 1.311 1.97 1.804 3.612 1.148 5.253-.166.498-.494.824-.822 1.317-.326.163-.819.49-1.315.659zm-9.036 2.301-.163.33-5.59-2.303.821-2.135-7.229-2.795 1.15-3.122 2.3.82c-.164-.49-.329-.987-.329-1.48-.163-.491 0-.984.165-1.314.659-1.807 2.137-2.792 4.439-3.12 1.312-.33 2.956-.165 4.436.165v3.618c-.656-.168-1.318-.168-1.808 0-.985.16-1.483.651-1.807 1.311-.167.657-.167 1.48.491 2.135.495.659 1.151 1.315 2.302 1.643.166.164.491.33.822.33zM206.565 54.887l-18.072-14.626 1.967-2.3 15.612 12.98 10.191-12.16 3.939 3.286-9.198 11.176c-1.481 1.812-3.288 2.463-4.439 1.644" style="fill:#254aa5;fill-opacity:1;fill-rule:evenodd;stroke:none;stroke-width:.1" transform="matrix(1.33333 0 0 -1.33333 0 348.164)"/><path d="m203.771 40.26 3.782 3.125 5.258-6.245 9.531 7.887 1.973-2.3-23.829-19.717-1.973 2.132 4.109 3.454-5.26 6.245 3.781 3.12 5.257-6.247 2.63 2.302zM117.825 20.868h8.382l.162 3.126h-13.145V9.201c0-.657.166-1.313.494-1.476.328-.329.984-.494 1.642-.494h13.806l.164 3.287-11.505-.166z" style="fill:#254aa5;fill-opacity:1;fill-rule:evenodd;stroke:none;stroke-width:.1" transform="matrix(1.33333 0 0 -1.33333 0 348.164)"/><path d="M136.725 23.66h4.929V0h-4.929v14.298h-2.796V0h-4.927v23.66h4.927v-6.406h2.796zM48.315 53.574l6.408-5.258 2.138 2.462-10.19 8.215-9.369-11.5c-.493-.492-.657-.987-.657-1.478.164-.495.494-.825 1.153-1.316l10.68-8.877 2.138 2.465-9.04 7.233z" style="fill:#254aa5;fill-opacity:1;fill-rule:evenodd;stroke:none;stroke-width:.1" transform="matrix(1.33333 0 0 -1.33333 0 348.164)"/><path d="m64.748 43.876 3.78-3.122-14.955-18.24-3.943 3.121 9.038 11.01-2.137 1.642-9.039-10.846-3.78 3.128 14.956 18.24 3.943-3.123-4.108-5.094 2.135-1.647zM76.25 35.003l-1.152-2.958 5.919-2.302c-.656-1.147-1.646-1.97-2.63-2.465-1.48-.49-3.289-.49-5.422.163l-1.153-3.12c1.644-.66 3.454-.986 5.257-.986 2.14 0 3.783.494 5.097 1.15.329-1.315 1.314-2.793 2.63-4.11 1.315-1.149 2.956-2.297 4.765-3.121l1.15 3.29q-2.96 1.478-3.943 3.45c-.657 1.148-.657 2.302-.495 3.612l6.246-2.299 1.15 2.961z" style="fill:#254aa5;fill-opacity:1;fill-rule:evenodd;stroke:none;stroke-width:.1" transform="matrix(1.33333 0 0 -1.33333 0 348.164)"/><path d="m93.833 5.098.987 2.298 6.904 17.746-4.273 1.645-6.903-17.75-14.463 5.752 1.975 5.095-4.276 1.808-2.628-6.738c-.33-.656-.33-1.315-.165-1.807.33-.493.821-.823 1.482-1.15L93.34 3.781zM13.311 98.271l11.503 2.299-1.644 8.217v.165c0 .163 0 .163-.161.163-.824 4.932-2.796 7.563-5.754 7.888-1.478.33-2.793.33-3.944.33v-4.11c.986.168 2.3.168 3.78-.163 1.645-.163 2.794-1.643 3.285-4.273l.823-4.6-7.888-1.477zm-3.121 18.897q-3.206-.491-5.919-2.958c-1.969-1.481-2.463-4.434-1.64-8.872l1.64-8.71 9.04 1.643v4.439l-7.066-1.479-.821 3.778c-.494 3.124-.164 5.094 1.148 6.08 1.48.818 3.125 1.48 5.26 1.808.164 0 .33 0 .492.163.166 0 .332 0 .491.163h.496v4.11c-1.315.163-2.302 0-3.121-.165" style="fill:#254aa5;fill-opacity:1;fill-rule:evenodd;stroke:none;stroke-width:.1" transform="matrix(1.33333 0 0 -1.33333 0 348.164)"/><path d="M10.19 117.168q-3.206-.491-5.919-2.958c-1.969-1.481-2.463-4.434-1.64-8.872l1.64-8.71 20.543 3.942-1.644 8.217v.165c0 .163 0 .163-.161.163-.824 4.932-2.796 7.563-5.754 7.888-3.121.493-5.422.493-7.065.165m2.625-3.945c1.154.168 2.632.168 4.276-.163 1.645-.163 2.794-1.643 3.285-4.273l.823-4.6-14.954-2.956-.821 3.778c-.494 3.124-.164 5.094 1.148 6.08 1.48.818 3.125 1.48 5.26 1.808.164 0 .33 0 .492.163.166 0 .332 0 .491.163M21.53 149.049l-13.478-4.436v-4.271l4.604 1.311-.332-6.078-4.272 1.641v-4.272l12.324-5.586.168 4.6-5.59 2.304.493 8.38 5.752 1.806zm-13.478-4.436-7.725-2.467L0 136.725l8.052-3.781v4.272l-4.436 1.81 4.436 1.316z" style="fill:#254aa5;fill-opacity:1;fill-rule:evenodd;stroke:none;stroke-width:.1" transform="matrix(1.33333 0 0 -1.33333 0 348.164)"/><path d="M21.53 149.049.326 142.146 0 136.725l20.376-9.367.168 4.6-5.59 2.304.493 8.38 5.752 1.806zm-8.875-7.396-.33-6.078-8.709 3.451zM11.503 178.96l-2.465.818-5.093-14.953 19.716-6.57 4.934 14.623-2.63.985-3.447-10.681-6.575 2.137 3.284 10.188-2.466.822-3.45-10.022-5.422 1.806zM33.686 198.348l-12.323 6.738-1.972-3.615 13.64-7.393c1.153-.66 1.644-1.48 1.644-2.14 0-.654-.166-1.478-.66-2.133-.654-1.314-1.477-1.805-2.134-1.483-.821.329-1.809.824-3.122 1.483l-2.136-3.781c.328-.164.492-.328.82-.495.164 0 .33-.163.493-.163 1.645-.984 3.124-1.148 4.438-.821 1.48.328 2.792 1.643 4.27 4.106 0 .167 0 .167.165.33 0 .165 0 .165.168.33 1.31 2.627 1.642 4.599.821 5.752-.99 1.148-2.303 2.3-4.112 3.285M48.643 205.744 33.03 219.551l-2.63-3.128 15.449-13.801zM71.65 225.299l-12.49 16.597-3.284-2.629 10.024-13.31-16.767 8.381-4.927-3.779 12.49-16.598 3.45 2.462-10.354 13.641 16.76-8.708zM110.268 245.021l-4.111 14.954-4.104-1.151 3.941-13.642c.328-1.478.163-2.628-.328-3.45-.494-.821-1.642-1.642-3.451-2.136-1.481-.329-2.631-.494-3.617-.164-1.147.329-1.806 1.151-2.134 2.464l-4.11 14.295-4.11-1.147 4.11-14.296c.494-1.81 1.479-3.286 2.959-4.109s4.108-.658 8.052.492c3.78 1.151 6.08 2.465 6.573 3.945.494 1.645.659 2.958.33 3.945M141.489 240.419v20.704h-4.273v-16.599l-8.214 16.599h-6.247v-20.704h4.274v16.927l8.218-16.927zM155.622 236.639l6.079 19.881-4.108 1.154-5.914-19.883zM191.938 246.003l-3.939 1.644-12.984-13.638 1.151 18.731-3.947 1.648-.656-22.349 4.273-1.808zM214.291 226.286l1.808 1.971-11.835 10.354-13.804-15.613 11.672-10.189 1.804 2.137-8.382 7.232 4.436 5.258 8.056-7.069 1.807 2.14-8.051 6.9 3.777 4.436zM226.777 194.407c.331.164.661.492.825.82.491.657.656 1.479.656 2.136-.165.658-.328 1.314-.656 1.971.986-.657 1.971-.986 3.121-1.152 1.152-.161 2.136.166 2.958.824 0 0 0 .162.163.162v.166c1.645 1.641 2.138 3.45 1.315 5.259-.659 1.972-1.806 3.615-3.121 5.259l-5.261 6.246v-4.438h.168l2.628-3.121c1.15-1.318 1.809-2.466 1.969-3.286.165-.989 0-1.809-.656-2.631l-.163-.162c-.163-.169-.163-.169-.163-.328-.822-.495-1.646-.661-2.63-.332-.328 0-.661.164-1.153.491zm-3.942-5.916.986.82c-.658.657-.33 1.643.986 2.794.821.82 1.479 1.643 1.97 2.302v7.884c-.491.331-1.149.988-1.64 1.645l-3.124 3.616 4.764 4.108v4.438l-.491.493-15.94-13.312 2.793-3.121 6.737 5.752 3.452-4.11c2.134-2.466 2.134-4.274.163-5.423-1.971-.986-3.124-2.467-3.615-4.439z" style="fill:#254aa5;fill-opacity:1;fill-rule:evenodd;stroke:none;stroke-width:.1" transform="matrix(1.33333 0 0 -1.33333 0 348.164)"/><path d="m222.835 188.491.986.82c-.658.657-.33 1.643.986 2.794 1.149 1.313 2.138 2.302 2.795 3.122.491.657.656 1.479.656 2.136-.165.658-.328 1.314-.656 1.971.986-.657 1.971-.986 3.121-1.152 1.152-.161 2.136.166 2.958.824 0 0 0 .162.163.162v.166c1.645 1.641 2.138 3.45 1.315 5.259-.659 1.972-1.806 3.615-3.121 5.259l-5.752 6.739-15.94-13.312 2.793-3.121 6.737 5.752 3.452-4.11c2.134-2.466 2.134-4.274.163-5.423-1.971-.986-3.124-2.467-3.615-4.439zm7.725 13.641c-.822-.495-1.646-.661-2.63-.332-.822.164-1.807.984-2.793 2.136l-3.124 3.616 4.932 4.108 2.628-3.121c1.15-1.318 1.809-2.466 1.969-3.286.165-.989 0-1.809-.656-2.631l-.163-.162c-.163-.169-.163-.169-.163-.328M237.954 165.319c3.289.988 4.274 3.779 3.123 8.216-1.317 4.438-.658 7.063 1.477 7.725.658.164 1.482 0 2.3-.492q1.232-.744 1.975-2.963c.325-1.149.325-2.134.162-3.121-.328-.985-1.149-1.642-2.301-1.97l1.152-4.11c.987.328 2.135 1.151 3.452 2.303 1.312 1.148 1.312 3.777.163 7.723-.989 3.285-2.303 5.257-3.783 6.079-1.638.82-2.953.987-4.106.657-.163-.163-.325-.163-.491-.163-.167 0-.33-.166-.493-.166-.493-.164-1.152-.655-1.809-1.314-.66-.659-.983-1.971-.983-3.945.162-1.148.162-2.464.162-3.612 0-1.316.161-2.303.161-3.288.167-1.315 0-2.136-.323-2.464-.332-.491-.823-.659-1.318-.821 0 0-.165 0-.165-.167h-.327c-.987-.328-1.973-.163-2.792.497-.825.654-1.315 1.64-1.808 2.955-.822 2.629-.659 4.275.325 4.927.989.662 1.974 1.155 3.121 1.644l-1.147 3.78q-2.961-.984-4.932-2.958c-1.147-1.311-1.147-4.105 0-8.216.658-2.132 1.811-3.942 3.126-5.587 1.478-1.479 3.446-1.97 6.079-1.149M236.309 148.886l20.542 3.12-.659 4.275-20.54-3.289zM254.221 121.606l2.961-.164.656 19.062h-2.956l-.165-7.397-17.915.494-.163-4.107 17.913-.658zM251.265 89.56l.987 4.438-8.053 8.056 10.683 3.94.986 4.604-14.463-5.917-7.724 1.808-.985-4.112 7.723-1.807z" style="fill:#254aa5;fill-opacity:1;fill-rule:evenodd;stroke:none;stroke-width:.1" transform="matrix(1.33333 0 0 -1.33333 0 348.164)"/></svg>